<?xml version="1.0" encoding="UTF-8"?>
<svg data-bbox="0 0 1734.57 669.073" xmlns="http://www.w3.org/2000/svg" viewBox="0 0 1735 670" height="670" width="1735" data-type="color">
    <g>
        <path fill="#0074BC" d="M307.243 669.073V507.316H0v-74.657L334.043.987h57.428v429.757H475.7v76.572h-84.229v161.757zM87.1 430.744h228.757V131.158z" data-color="1"/>
        <g clip-path="url(#712ade15-8f82-482a-b642-03b11c35fa25)">
            <path fill="#DD2226" d="M1012.25 338.632c-7.95 2.545-16.504-1.749-19.089-9.704-2.544-7.953 1.83-16.543 9.699-19.089 7.96-2.544 16.51 1.75 19.09 9.704 2.55 7.955-1.74 16.545-9.7 19.089m-51.898-82.759-30.582 93.696 79.66 57.824 208.74-151.52z" data-color="2"/>
            <path fill="#FED401" d="M866.936 236.865c-8.352 0-15.113-6.842-15.113-15.114 0-8.271 6.722-15.111 15.113-15.111s15.111 6.76 15.111 15.111a15.08 15.08 0 0 1-15.111 15.114m0-236.865-79.459 245.614 79.459 58.021 79.457-58.021z" data-color="3"/>
            <path fill="#1073B8" d="M740.593 328.928c-2.546 7.955-11.136 12.369-19.089 9.704-7.954-2.544-12.329-11.134-9.704-19.089 2.546-7.954 11.136-12.368 19.089-9.704 7.954 2.546 12.329 11.136 9.704 19.089m32.809-73.055H515.699l208.748 151.52 79.657-57.824-30.583-93.696z" data-color="4"/>
            <path fill="#010101" d="M962.825 502.003c-6.72 4.891-16.225 3.461-21.117-3.261-4.891-6.761-3.459-16.226 3.261-21.156 6.721-4.893 16.226-3.461 21.118 3.379 4.891 6.762 3.459 16.227-3.381 21.158zm41.205-78.385h-98.432l-30.106 93.815 208.668 151.64-80.17-245.415z" data-color="5"/>
            <path fill="#49AB48" d="M792.094 498.822c-4.893 6.76-14.397 8.271-21.118 3.38s-8.272-14.397-3.262-21.157c4.893-6.76 14.398-8.272 21.118-3.262 6.721 4.893 8.272 14.398 3.262 21.158zm35.99-75.204h-98.429l-80.253 245.415L858.07 517.394l-29.986-93.815z" data-color="6"/>
        </g>
        <path fill="#0074BC" d="M1566.11 669.073V507.316h-307.24v-74.657L1592.91.987h57.43v429.757h84.23v76.572h-84.23v161.757zm-220.14-238.329h228.75V131.158z" data-color="1"/>
        <defs fill="none">
            <clipPath id="712ade15-8f82-482a-b642-03b11c35fa25">
                <path fill="#ffffff" d="M1218.865 0v669.073H515.699V0z"/>
            </clipPath>
        </defs>
    </g>
</svg>
